<?xml version="1.0" standalone="no"?>
<svg xmlns:xlink="http://www.w3.org/1999/xlink" id="wave" style="transform:rotate(0deg); transition: 0.3s" viewBox="0 0 1440 490" version="1.1" xmlns="http://www.w3.org/2000/svg"><defs><linearGradient id="sw-gradient-0" x1="0" x2="0" y1="1" y2="0"><stop stop-color="rgba(243, 106, 62, 1)" offset="0%"/><stop stop-color="rgba(255, 255, 255, 1)" offset="100%"/></linearGradient></defs><path style="transform:translate(0, 0px); opacity:1" fill="url(#sw-gradient-0)" d="M0,98L18.5,98C36.9,98,74,98,111,81.7C147.7,65,185,33,222,16.3C258.5,0,295,0,332,32.7C369.2,65,406,131,443,204.2C480,278,517,359,554,343C590.8,327,628,212,665,187.8C701.5,163,738,229,775,285.8C812.3,343,849,392,886,343C923.1,294,960,147,997,130.7C1033.8,114,1071,229,1108,228.7C1144.6,229,1182,114,1218,73.5C1255.4,33,1292,65,1329,81.7C1366.2,98,1403,98,1440,138.8C1476.9,180,1514,261,1551,318.5C1587.7,376,1625,408,1662,392C1698.5,376,1735,310,1772,285.8C1809.2,261,1846,278,1883,245C1920,212,1957,131,1994,138.8C2030.8,147,2068,245,2105,236.8C2141.5,229,2178,114,2215,98C2252.3,82,2289,163,2326,228.7C2363.1,294,2400,343,2437,302.2C2473.8,261,2511,131,2548,65.3C2584.6,0,2622,0,2640,0L2658.5,0L2658.5,490L2640,490C2621.5,490,2585,490,2548,490C2510.8,490,2474,490,2437,490C2400,490,2363,490,2326,490C2289.2,490,2252,490,2215,490C2178.5,490,2142,490,2105,490C2067.7,490,2031,490,1994,490C1956.9,490,1920,490,1883,490C1846.2,490,1809,490,1772,490C1735.4,490,1698,490,1662,490C1624.6,490,1588,490,1551,490C1513.8,490,1477,490,1440,490C1403.1,490,1366,490,1329,490C1292.3,490,1255,490,1218,490C1181.5,490,1145,490,1108,490C1070.8,490,1034,490,997,490C960,490,923,490,886,490C849.2,490,812,490,775,490C738.5,490,702,490,665,490C627.7,490,591,490,554,490C516.9,490,480,490,443,490C406.2,490,369,490,332,490C295.4,490,258,490,222,490C184.6,490,148,490,111,490C73.8,490,37,490,18,490L0,490Z"/><defs><linearGradient id="sw-gradient-1" x1="0" x2="0" y1="1" y2="0"><stop stop-color="rgba(216.615, 52.658, 0, 1)" offset="0%"/><stop stop-color="rgba(255, 255, 255, 1)" offset="100%"/></linearGradient></defs><path style="transform:translate(0, 50px); opacity:0.9" fill="url(#sw-gradient-1)" d="M0,0L18.5,40.8C36.9,82,74,163,111,212.3C147.7,261,185,278,222,285.8C258.5,294,295,294,332,261.3C369.2,229,406,163,443,179.7C480,196,517,294,554,326.7C590.8,359,628,327,665,310.3C701.5,294,738,294,775,294C812.3,294,849,294,886,285.8C923.1,278,960,261,997,269.5C1033.8,278,1071,310,1108,269.5C1144.6,229,1182,114,1218,89.8C1255.4,65,1292,131,1329,187.8C1366.2,245,1403,294,1440,310.3C1476.9,327,1514,310,1551,261.3C1587.7,212,1625,131,1662,138.8C1698.5,147,1735,245,1772,236.8C1809.2,229,1846,114,1883,73.5C1920,33,1957,65,1994,122.5C2030.8,180,2068,261,2105,261.3C2141.5,261,2178,180,2215,163.3C2252.3,147,2289,196,2326,179.7C2363.1,163,2400,82,2437,89.8C2473.8,98,2511,196,2548,228.7C2584.6,261,2622,229,2640,212.3L2658.5,196L2658.5,490L2640,490C2621.5,490,2585,490,2548,490C2510.8,490,2474,490,2437,490C2400,490,2363,490,2326,490C2289.2,490,2252,490,2215,490C2178.5,490,2142,490,2105,490C2067.7,490,2031,490,1994,490C1956.9,490,1920,490,1883,490C1846.2,490,1809,490,1772,490C1735.4,490,1698,490,1662,490C1624.6,490,1588,490,1551,490C1513.8,490,1477,490,1440,490C1403.1,490,1366,490,1329,490C1292.3,490,1255,490,1218,490C1181.5,490,1145,490,1108,490C1070.8,490,1034,490,997,490C960,490,923,490,886,490C849.2,490,812,490,775,490C738.5,490,702,490,665,490C627.7,490,591,490,554,490C516.9,490,480,490,443,490C406.2,490,369,490,332,490C295.4,490,258,490,222,490C184.6,490,148,490,111,490C73.8,490,37,490,18,490L0,490Z"/><defs><linearGradient id="sw-gradient-2" x1="0" x2="0" y1="1" y2="0"><stop stop-color="rgba(255, 121.471, 0, 1)" offset="0%"/><stop stop-color="rgba(250.767, 250.767, 250.767, 1)" offset="100%"/></linearGradient></defs><path style="transform:translate(0, 100px); opacity:0.8" fill="url(#sw-gradient-2)" d="M0,147L18.5,163.3C36.9,180,74,212,111,236.8C147.7,261,185,278,222,294C258.5,310,295,327,332,351.2C369.2,376,406,408,443,375.7C480,343,517,245,554,212.3C590.8,180,628,212,665,245C701.5,278,738,310,775,277.7C812.3,245,849,147,886,114.3C923.1,82,960,114,997,138.8C1033.8,163,1071,180,1108,204.2C1144.6,229,1182,261,1218,294C1255.4,327,1292,359,1329,367.5C1366.2,376,1403,359,1440,326.7C1476.9,294,1514,245,1551,204.2C1587.7,163,1625,131,1662,155.2C1698.5,180,1735,261,1772,261.3C1809.2,261,1846,180,1883,187.8C1920,196,1957,294,1994,318.5C2030.8,343,2068,294,2105,261.3C2141.5,229,2178,212,2215,228.7C2252.3,245,2289,294,2326,318.5C2363.1,343,2400,343,2437,326.7C2473.8,310,2511,278,2548,269.5C2584.6,261,2622,278,2640,285.8L2658.5,294L2658.5,490L2640,490C2621.5,490,2585,490,2548,490C2510.8,490,2474,490,2437,490C2400,490,2363,490,2326,490C2289.2,490,2252,490,2215,490C2178.5,490,2142,490,2105,490C2067.7,490,2031,490,1994,490C1956.9,490,1920,490,1883,490C1846.2,490,1809,490,1772,490C1735.4,490,1698,490,1662,490C1624.6,490,1588,490,1551,490C1513.8,490,1477,490,1440,490C1403.1,490,1366,490,1329,490C1292.3,490,1255,490,1218,490C1181.5,490,1145,490,1108,490C1070.8,490,1034,490,997,490C960,490,923,490,886,490C849.2,490,812,490,775,490C738.5,490,702,490,665,490C627.7,490,591,490,554,490C516.9,490,480,490,443,490C406.2,490,369,490,332,490C295.4,490,258,490,222,490C184.6,490,148,490,111,490C73.8,490,37,490,18,490L0,490Z"/></svg>