<!--?xml version="1.0" standalone="no"?-->
              <svg id="sw-js-blob-svg" viewBox="0 0 100 100" xmlns="http://www.w3.org/2000/svg" version="1.1">
                    <defs> 
                        <linearGradient id="sw-gradient" x1="0" x2="1" y1="1" y2="0">
                            <stop id="stop1" stop-color="rgba(248, 117, 55, 1)" offset="0%"></stop>
                            <stop id="stop2" stop-color="rgba(251, 168, 31, 1)" offset="100%"></stop>
                        </linearGradient>
                    </defs>
                <path fill="url(#sw-gradient)" d="M16.5,-26.9C21.3,-25.9,24.8,-21.2,30.2,-16C35.5,-10.9,42.7,-5.5,42.8,0.1C43,5.6,36.2,11.3,29.1,13.5C22.1,15.6,14.8,14.3,9.9,17.8C5,21.3,2.5,29.5,-2,32.9C-6.4,36.3,-12.8,34.8,-13.8,29C-14.7,23.3,-10.3,13.3,-12.6,7.8C-14.9,2.3,-24,1.1,-24.5,-0.3C-25,-1.7,-16.9,-3.4,-14.3,-8.5C-11.7,-13.5,-14.6,-21.9,-13.1,-24.8C-11.7,-27.6,-5.8,-25,0,-25C5.9,-25.1,11.8,-27.9,16.5,-26.9Z" width="100%" height="100%" transform="translate(50 50)" stroke-width="0" style="transition: all 0.3s ease 0s;" stroke="url(#sw-gradient)"></path>
              </svg>