<!--?xml version="1.0" standalone="no"?-->
              <svg id="sw-js-blob-svg" viewBox="0 0 100 100" xmlns="http://www.w3.org/2000/svg" version="1.1">
                    <defs> 
                        <linearGradient id="sw-gradient" x1="0" x2="1" y1="1" y2="0">
                            <stop id="stop1" stop-color="rgba(248, 117, 55, 1)" offset="0%"></stop>
                            <stop id="stop2" stop-color="rgba(251, 168, 31, 1)" offset="100%"></stop>
                        </linearGradient>
                    </defs>
                <path fill="url(#sw-gradient)" d="M20.5,-30C23,-30.2,19.1,-18.6,22.2,-10.5C25.2,-2.5,35.2,2,34.6,4.8C34,7.6,22.7,8.8,16.1,10.7C9.4,12.5,7.3,15.2,4.2,17.6C1.1,20,-3.1,22.3,-5.6,20.8C-8.2,19.3,-9.2,14.1,-15.1,11C-20.9,7.9,-31.7,7,-34.7,3.4C-37.7,-0.2,-32.9,-6.5,-26.8,-9.1C-20.8,-11.7,-13.4,-10.6,-8.8,-9.4C-4.1,-8.1,-2,-6.7,3.5,-12.1C9,-17.5,17.9,-29.7,20.5,-30Z" width="100%" height="100%" transform="translate(50 50)" stroke-width="0" style="transition: all 0.3s ease 0s;" stroke="url(#sw-gradient)"></path>
              </svg>