<?xml version="1.0" standalone="no"?>
<svg xmlns:xlink="http://www.w3.org/1999/xlink" id="wave" style="transform:rotate(180deg); transition: 0.3s" viewBox="0 0 1440 210" version="1.1" xmlns="http://www.w3.org/2000/svg"><defs><linearGradient id="sw-gradient-0" x1="0" x2="0" y1="1" y2="0"><stop stop-color="rgba(0, 242.043, 255, 0.31)" offset="0%"/><stop stop-color="rgba(77.562, 0, 255, 0.34)" offset="100%"/></linearGradient></defs><path style="transform:translate(0, 0px); opacity:1" fill="url(#sw-gradient-0)" d="M0,105L10,94.5C20,84,40,63,60,70C80,77,100,112,120,133C140,154,160,161,180,164.5C200,168,220,168,240,150.5C260,133,280,98,300,94.5C320,91,340,119,360,136.5C380,154,400,161,420,140C440,119,460,70,480,49C500,28,520,35,540,38.5C560,42,580,42,600,56C620,70,640,98,660,101.5C680,105,700,84,720,94.5C740,105,760,147,780,150.5C800,154,820,119,840,94.5C860,70,880,56,900,42C920,28,940,14,960,14C980,14,1000,28,1020,59.5C1040,91,1060,140,1080,133C1100,126,1120,63,1140,31.5C1160,0,1180,0,1200,24.5C1220,49,1240,98,1260,129.5C1280,161,1300,175,1320,164.5C1340,154,1360,119,1380,119C1400,119,1420,154,1430,171.5L1440,189L1440,210L1430,210C1420,210,1400,210,1380,210C1360,210,1340,210,1320,210C1300,210,1280,210,1260,210C1240,210,1220,210,1200,210C1180,210,1160,210,1140,210C1120,210,1100,210,1080,210C1060,210,1040,210,1020,210C1000,210,980,210,960,210C940,210,920,210,900,210C880,210,860,210,840,210C820,210,800,210,780,210C760,210,740,210,720,210C700,210,680,210,660,210C640,210,620,210,600,210C580,210,560,210,540,210C520,210,500,210,480,210C460,210,440,210,420,210C400,210,380,210,360,210C340,210,320,210,300,210C280,210,260,210,240,210C220,210,200,210,180,210C160,210,140,210,120,210C100,210,80,210,60,210C40,210,20,210,10,210L0,210Z"/><defs><linearGradient id="sw-gradient-1" x1="0" x2="0" y1="1" y2="0"><stop stop-color="rgba(0, 155.663, 255, 0.6)" offset="0%"/><stop stop-color="rgba(0, 95.198, 255, 0.56)" offset="100%"/></linearGradient></defs><path style="transform:translate(0, 50px); opacity:0.9" fill="url(#sw-gradient-1)" d="M0,21L10,38.5C20,56,40,91,60,101.5C80,112,100,98,120,91C140,84,160,84,180,70C200,56,220,28,240,17.5C260,7,280,14,300,24.5C320,35,340,49,360,52.5C380,56,400,49,420,45.5C440,42,460,42,480,66.5C500,91,520,140,540,147C560,154,580,119,600,112C620,105,640,126,660,133C680,140,700,133,720,126C740,119,760,112,780,112C800,112,820,119,840,115.5C860,112,880,98,900,101.5C920,105,940,126,960,112C980,98,1000,49,1020,24.5C1040,0,1060,0,1080,14C1100,28,1120,56,1140,80.5C1160,105,1180,126,1200,133C1220,140,1240,133,1260,122.5C1280,112,1300,98,1320,94.5C1340,91,1360,98,1380,101.5C1400,105,1420,105,1430,105L1440,105L1440,210L1430,210C1420,210,1400,210,1380,210C1360,210,1340,210,1320,210C1300,210,1280,210,1260,210C1240,210,1220,210,1200,210C1180,210,1160,210,1140,210C1120,210,1100,210,1080,210C1060,210,1040,210,1020,210C1000,210,980,210,960,210C940,210,920,210,900,210C880,210,860,210,840,210C820,210,800,210,780,210C760,210,740,210,720,210C700,210,680,210,660,210C640,210,620,210,600,210C580,210,560,210,540,210C520,210,500,210,480,210C460,210,440,210,420,210C400,210,380,210,360,210C340,210,320,210,300,210C280,210,260,210,240,210C220,210,200,210,180,210C160,210,140,210,120,210C100,210,80,210,60,210C40,210,20,210,10,210L0,210Z"/><defs><linearGradient id="sw-gradient-2" x1="0" x2="0" y1="1" y2="0"><stop stop-color="rgba(0, 224.767, 255, 0.52)" offset="0%"/><stop stop-color="rgba(0, 112.474, 255, 0.49)" offset="100%"/></linearGradient></defs><path style="transform:translate(0, 100px); opacity:0.8" fill="url(#sw-gradient-2)" d="M0,42L10,42C20,42,40,42,60,49C80,56,100,70,120,80.5C140,91,160,98,180,101.5C200,105,220,105,240,98C260,91,280,77,300,59.5C320,42,340,21,360,14C380,7,400,14,420,42C440,70,460,119,480,143.5C500,168,520,168,540,164.5C560,161,580,154,600,133C620,112,640,77,660,80.5C680,84,700,126,720,122.5C740,119,760,70,780,73.5C800,77,820,133,840,154C860,175,880,161,900,154C920,147,940,147,960,154C980,161,1000,175,1020,154C1040,133,1060,77,1080,59.5C1100,42,1120,63,1140,70C1160,77,1180,70,1200,73.5C1220,77,1240,91,1260,101.5C1280,112,1300,119,1320,122.5C1340,126,1360,126,1380,133C1400,140,1420,154,1430,161L1440,168L1440,210L1430,210C1420,210,1400,210,1380,210C1360,210,1340,210,1320,210C1300,210,1280,210,1260,210C1240,210,1220,210,1200,210C1180,210,1160,210,1140,210C1120,210,1100,210,1080,210C1060,210,1040,210,1020,210C1000,210,980,210,960,210C940,210,920,210,900,210C880,210,860,210,840,210C820,210,800,210,780,210C760,210,740,210,720,210C700,210,680,210,660,210C640,210,620,210,600,210C580,210,560,210,540,210C520,210,500,210,480,210C460,210,440,210,420,210C400,210,380,210,360,210C340,210,320,210,300,210C280,210,260,210,240,210C220,210,200,210,180,210C160,210,140,210,120,210C100,210,80,210,60,210C40,210,20,210,10,210L0,210Z"/></svg>