<?xml version="1.0" standalone="no"?>
<svg xmlns:xlink="http://www.w3.org/1999/xlink" id="wave" style="transform:rotate(180deg); transition: 0.3s" viewBox="0 0 1440 210" version="1.1" xmlns="http://www.w3.org/2000/svg"><defs><linearGradient id="sw-gradient-0" x1="0" x2="0" y1="1" y2="0"><stop stop-color="rgba(255, 255, 255, 0.31)" offset="0%"/><stop stop-color="rgba(255, 255, 255, 0.2)" offset="100%"/></linearGradient></defs><path style="transform:translate(0, 0px); opacity:1" fill="url(#sw-gradient-0)" d="M0,126L26.7,126C53.3,126,107,126,160,136.5C213.3,147,267,168,320,164.5C373.3,161,427,133,480,105C533.3,77,587,49,640,59.5C693.3,70,747,119,800,133C853.3,147,907,126,960,119C1013.3,112,1067,119,1120,126C1173.3,133,1227,140,1280,119C1333.3,98,1387,49,1440,38.5C1493.3,28,1547,56,1600,80.5C1653.3,105,1707,126,1760,143.5C1813.3,161,1867,175,1920,182C1973.3,189,2027,189,2080,161C2133.3,133,2187,77,2240,77C2293.3,77,2347,133,2400,157.5C2453.3,182,2507,175,2560,157.5C2613.3,140,2667,112,2720,94.5C2773.3,77,2827,70,2880,66.5C2933.3,63,2987,63,3040,52.5C3093.3,42,3147,21,3200,28C3253.3,35,3307,70,3360,91C3413.3,112,3467,119,3520,126C3573.3,133,3627,140,3680,126C3733.3,112,3787,77,3813,59.5L3840,42L3840,210L3813.3,210C3786.7,210,3733,210,3680,210C3626.7,210,3573,210,3520,210C3466.7,210,3413,210,3360,210C3306.7,210,3253,210,3200,210C3146.7,210,3093,210,3040,210C2986.7,210,2933,210,2880,210C2826.7,210,2773,210,2720,210C2666.7,210,2613,210,2560,210C2506.7,210,2453,210,2400,210C2346.7,210,2293,210,2240,210C2186.7,210,2133,210,2080,210C2026.7,210,1973,210,1920,210C1866.7,210,1813,210,1760,210C1706.7,210,1653,210,1600,210C1546.7,210,1493,210,1440,210C1386.7,210,1333,210,1280,210C1226.7,210,1173,210,1120,210C1066.7,210,1013,210,960,210C906.7,210,853,210,800,210C746.7,210,693,210,640,210C586.7,210,533,210,480,210C426.7,210,373,210,320,210C266.7,210,213,210,160,210C106.7,210,53,210,27,210L0,210Z"/><defs><linearGradient id="sw-gradient-1" x1="0" x2="0" y1="1" y2="0"><stop stop-color="rgba(169.839, 217.851, 248.49, 0.6)" offset="0%"/><stop stop-color="rgba(125.341, 255, 244.02, 0.33)" offset="100%"/></linearGradient></defs><path style="transform:translate(0, 50px); opacity:0.9" fill="url(#sw-gradient-1)" d="M0,42L26.7,52.5C53.3,63,107,84,160,108.5C213.3,133,267,161,320,175C373.3,189,427,189,480,171.5C533.3,154,587,119,640,94.5C693.3,70,747,56,800,70C853.3,84,907,126,960,122.5C1013.3,119,1067,70,1120,52.5C1173.3,35,1227,49,1280,66.5C1333.3,84,1387,105,1440,98C1493.3,91,1547,56,1600,66.5C1653.3,77,1707,133,1760,157.5C1813.3,182,1867,175,1920,157.5C1973.3,140,2027,112,2080,105C2133.3,98,2187,112,2240,122.5C2293.3,133,2347,140,2400,136.5C2453.3,133,2507,119,2560,94.5C2613.3,70,2667,35,2720,49C2773.3,63,2827,126,2880,136.5C2933.3,147,2987,105,3040,87.5C3093.3,70,3147,77,3200,70C3253.3,63,3307,42,3360,31.5C3413.3,21,3467,21,3520,24.5C3573.3,28,3627,35,3680,63C3733.3,91,3787,140,3813,164.5L3840,189L3840,210L3813.3,210C3786.7,210,3733,210,3680,210C3626.7,210,3573,210,3520,210C3466.7,210,3413,210,3360,210C3306.7,210,3253,210,3200,210C3146.7,210,3093,210,3040,210C2986.7,210,2933,210,2880,210C2826.7,210,2773,210,2720,210C2666.7,210,2613,210,2560,210C2506.7,210,2453,210,2400,210C2346.7,210,2293,210,2240,210C2186.7,210,2133,210,2080,210C2026.7,210,1973,210,1920,210C1866.7,210,1813,210,1760,210C1706.7,210,1653,210,1600,210C1546.7,210,1493,210,1440,210C1386.7,210,1333,210,1280,210C1226.7,210,1173,210,1120,210C1066.7,210,1013,210,960,210C906.7,210,853,210,800,210C746.7,210,693,210,640,210C586.7,210,533,210,480,210C426.7,210,373,210,320,210C266.7,210,213,210,160,210C106.7,210,53,210,27,210L0,210Z"/><defs><linearGradient id="sw-gradient-2" x1="0" x2="0" y1="1" y2="0"><stop stop-color="rgba(158.453, 243.553, 255, 0.52)" offset="0%"/><stop stop-color="rgba(105.185, 191.564, 255, 0.13)" offset="100%"/></linearGradient></defs><path style="transform:translate(0, 100px); opacity:0.8" fill="url(#sw-gradient-2)" d="M0,147L26.7,126C53.3,105,107,63,160,49C213.3,35,267,49,320,77C373.3,105,427,147,480,164.5C533.3,182,587,175,640,157.5C693.3,140,747,112,800,94.5C853.3,77,907,70,960,80.5C1013.3,91,1067,119,1120,112C1173.3,105,1227,63,1280,42C1333.3,21,1387,21,1440,49C1493.3,77,1547,133,1600,161C1653.3,189,1707,189,1760,175C1813.3,161,1867,133,1920,122.5C1973.3,112,2027,119,2080,129.5C2133.3,140,2187,154,2240,147C2293.3,140,2347,112,2400,91C2453.3,70,2507,56,2560,66.5C2613.3,77,2667,112,2720,129.5C2773.3,147,2827,147,2880,150.5C2933.3,154,2987,161,3040,140C3093.3,119,3147,70,3200,49C3253.3,28,3307,35,3360,52.5C3413.3,70,3467,98,3520,91C3573.3,84,3627,42,3680,49C3733.3,56,3787,112,3813,140L3840,168L3840,210L3813.3,210C3786.7,210,3733,210,3680,210C3626.7,210,3573,210,3520,210C3466.7,210,3413,210,3360,210C3306.7,210,3253,210,3200,210C3146.7,210,3093,210,3040,210C2986.7,210,2933,210,2880,210C2826.7,210,2773,210,2720,210C2666.7,210,2613,210,2560,210C2506.7,210,2453,210,2400,210C2346.7,210,2293,210,2240,210C2186.7,210,2133,210,2080,210C2026.7,210,1973,210,1920,210C1866.7,210,1813,210,1760,210C1706.7,210,1653,210,1600,210C1546.7,210,1493,210,1440,210C1386.7,210,1333,210,1280,210C1226.7,210,1173,210,1120,210C1066.7,210,1013,210,960,210C906.7,210,853,210,800,210C746.7,210,693,210,640,210C586.7,210,533,210,480,210C426.7,210,373,210,320,210C266.7,210,213,210,160,210C106.7,210,53,210,27,210L0,210Z"/></svg>