<?xml version="1.0" standalone="no"?>
<svg xmlns:xlink="http://www.w3.org/1999/xlink" id="wave" style="transform:rotate(0deg); transition: 0.3s" viewBox="0 0 1440 490" version="1.1" xmlns="http://www.w3.org/2000/svg"><defs><linearGradient id="sw-gradient-0" x1="0" x2="0" y1="1" y2="0"><stop stop-color="rgba(243, 106, 62, 1)" offset="0%"/><stop stop-color="rgba(255, 221.341, 146.935, 1)" offset="100%"/></linearGradient></defs><path style="transform:translate(0, 0px); opacity:1" fill="url(#sw-gradient-0)" d="M0,343L14.1,351.2C28.2,359,56,376,85,351.2C112.9,327,141,261,169,204.2C197.6,147,226,98,254,106.2C282.4,114,311,180,339,228.7C367.1,278,395,310,424,294C451.8,278,480,212,508,204.2C536.5,196,565,245,593,245C621.2,245,649,196,678,163.3C705.9,131,734,114,762,106.2C790.6,98,819,98,847,89.8C875.3,82,904,65,932,122.5C960,180,988,310,1016,302.2C1044.7,294,1073,147,1101,122.5C1129.4,98,1158,196,1186,245C1214.1,294,1242,294,1271,310.3C1298.8,327,1327,359,1355,359.3C1383.5,359,1412,327,1440,302.2C1468.2,278,1496,261,1525,212.3C1552.9,163,1581,82,1609,106.2C1637.6,131,1666,261,1694,302.2C1722.4,343,1751,294,1779,269.5C1807.1,245,1835,245,1864,261.3C1891.8,278,1920,310,1948,343C1976.5,376,2005,408,2019,424.7L2032.9,441L2032.9,490L2018.8,490C2004.7,490,1976,490,1948,490C1920,490,1892,490,1864,490C1835.3,490,1807,490,1779,490C1750.6,490,1722,490,1694,490C1665.9,490,1638,490,1609,490C1581.2,490,1553,490,1525,490C1496.5,490,1468,490,1440,490C1411.8,490,1384,490,1355,490C1327.1,490,1299,490,1271,490C1242.4,490,1214,490,1186,490C1157.6,490,1129,490,1101,490C1072.9,490,1045,490,1016,490C988.2,490,960,490,932,490C903.5,490,875,490,847,490C818.8,490,791,490,762,490C734.1,490,706,490,678,490C649.4,490,621,490,593,490C564.7,490,536,490,508,490C480,490,452,490,424,490C395.3,490,367,490,339,490C310.6,490,282,490,254,490C225.9,490,198,490,169,490C141.2,490,113,490,85,490C56.5,490,28,490,14,490L0,490Z"/><defs><linearGradient id="sw-gradient-1" x1="0" x2="0" y1="1" y2="0"><stop stop-color="rgba(243, 106, 62, 1)" offset="0%"/><stop stop-color="rgba(255, 255, 255, 1)" offset="100%"/></linearGradient></defs><path style="transform:translate(0, 50px); opacity:0.9" fill="url(#sw-gradient-1)" d="M0,196L14.1,171.5C28.2,147,56,98,85,130.7C112.9,163,141,278,169,318.5C197.6,359,226,327,254,302.2C282.4,278,311,261,339,228.7C367.1,196,395,147,424,163.3C451.8,180,480,261,508,277.7C536.5,294,565,245,593,187.8C621.2,131,649,65,678,49C705.9,33,734,65,762,122.5C790.6,180,819,261,847,302.2C875.3,343,904,343,932,285.8C960,229,988,114,1016,98C1044.7,82,1073,163,1101,196C1129.4,229,1158,212,1186,196C1214.1,180,1242,163,1271,147C1298.8,131,1327,114,1355,114.3C1383.5,114,1412,131,1440,163.3C1468.2,196,1496,245,1525,269.5C1552.9,294,1581,294,1609,261.3C1637.6,229,1666,163,1694,114.3C1722.4,65,1751,33,1779,32.7C1807.1,33,1835,65,1864,81.7C1891.8,98,1920,98,1948,114.3C1976.5,131,2005,163,2019,179.7L2032.9,196L2032.9,490L2018.8,490C2004.7,490,1976,490,1948,490C1920,490,1892,490,1864,490C1835.3,490,1807,490,1779,490C1750.6,490,1722,490,1694,490C1665.9,490,1638,490,1609,490C1581.2,490,1553,490,1525,490C1496.5,490,1468,490,1440,490C1411.8,490,1384,490,1355,490C1327.1,490,1299,490,1271,490C1242.4,490,1214,490,1186,490C1157.6,490,1129,490,1101,490C1072.9,490,1045,490,1016,490C988.2,490,960,490,932,490C903.5,490,875,490,847,490C818.8,490,791,490,762,490C734.1,490,706,490,678,490C649.4,490,621,490,593,490C564.7,490,536,490,508,490C480,490,452,490,424,490C395.3,490,367,490,339,490C310.6,490,282,490,254,490C225.9,490,198,490,169,490C141.2,490,113,490,85,490C56.5,490,28,490,14,490L0,490Z"/><defs><linearGradient id="sw-gradient-2" x1="0" x2="0" y1="1" y2="0"><stop stop-color="rgba(243, 106, 62, 1)" offset="0%"/><stop stop-color="rgba(255, 151.254, 151.254, 1)" offset="100%"/></linearGradient></defs><path style="transform:translate(0, 100px); opacity:0.8" fill="url(#sw-gradient-2)" d="M0,196L14.1,212.3C28.2,229,56,261,85,253.2C112.9,245,141,196,169,220.5C197.6,245,226,343,254,351.2C282.4,359,311,278,339,245C367.1,212,395,229,424,245C451.8,261,480,278,508,302.2C536.5,327,565,359,593,359.3C621.2,359,649,327,678,310.3C705.9,294,734,294,762,261.3C790.6,229,819,163,847,179.7C875.3,196,904,294,932,326.7C960,359,988,327,1016,302.2C1044.7,278,1073,261,1101,253.2C1129.4,245,1158,245,1186,261.3C1214.1,278,1242,310,1271,269.5C1298.8,229,1327,114,1355,122.5C1383.5,131,1412,261,1440,261.3C1468.2,261,1496,131,1525,98C1552.9,65,1581,131,1609,147C1637.6,163,1666,131,1694,155.2C1722.4,180,1751,261,1779,269.5C1807.1,278,1835,212,1864,163.3C1891.8,114,1920,82,1948,73.5C1976.5,65,2005,82,2019,89.8L2032.9,98L2032.9,490L2018.8,490C2004.7,490,1976,490,1948,490C1920,490,1892,490,1864,490C1835.3,490,1807,490,1779,490C1750.6,490,1722,490,1694,490C1665.9,490,1638,490,1609,490C1581.2,490,1553,490,1525,490C1496.5,490,1468,490,1440,490C1411.8,490,1384,490,1355,490C1327.1,490,1299,490,1271,490C1242.4,490,1214,490,1186,490C1157.6,490,1129,490,1101,490C1072.9,490,1045,490,1016,490C988.2,490,960,490,932,490C903.5,490,875,490,847,490C818.8,490,791,490,762,490C734.1,490,706,490,678,490C649.4,490,621,490,593,490C564.7,490,536,490,508,490C480,490,452,490,424,490C395.3,490,367,490,339,490C310.6,490,282,490,254,490C225.9,490,198,490,169,490C141.2,490,113,490,85,490C56.5,490,28,490,14,490L0,490Z"/></svg>