<?xml version="1.0" standalone="no"?>
<svg xmlns:xlink="http://www.w3.org/1999/xlink" id="wave" style="transform:rotate(0deg); transition: 0.3s" viewBox="0 0 1440 490" version="1.1" xmlns="http://www.w3.org/2000/svg"><defs><linearGradient id="sw-gradient-0" x1="0" x2="0" y1="1" y2="0"><stop stop-color="rgba(255, 61.989, 0, 1)" offset="0%"/><stop stop-color="rgba(207.508, 48.106, 205.033, 1)" offset="100%"/></linearGradient></defs><path style="transform:translate(0, 0px); opacity:1" fill="url(#sw-gradient-0)" d="M0,441L80,424.7C160,408,320,376,480,310.3C640,245,800,147,960,155.2C1120,163,1280,278,1440,302.2C1600,327,1760,261,1920,212.3C2080,163,2240,131,2400,171.5C2560,212,2720,327,2880,343C3040,359,3200,278,3360,277.7C3520,278,3680,359,3840,375.7C4000,392,4160,343,4320,277.7C4480,212,4640,131,4800,130.7C4960,131,5120,212,5280,277.7C5440,343,5600,392,5760,343C5920,294,6080,147,6240,138.8C6400,131,6560,261,6720,302.2C6880,343,7040,294,7200,228.7C7360,163,7520,82,7680,73.5C7840,65,8000,131,8160,130.7C8320,131,8480,65,8640,81.7C8800,98,8960,196,9120,212.3C9280,229,9440,163,9600,122.5C9760,82,9920,65,10080,114.3C10240,163,10400,278,10560,310.3C10720,343,10880,294,11040,261.3C11200,229,11360,212,11440,204.2L11520,196L11520,490L11440,490C11360,490,11200,490,11040,490C10880,490,10720,490,10560,490C10400,490,10240,490,10080,490C9920,490,9760,490,9600,490C9440,490,9280,490,9120,490C8960,490,8800,490,8640,490C8480,490,8320,490,8160,490C8000,490,7840,490,7680,490C7520,490,7360,490,7200,490C7040,490,6880,490,6720,490C6560,490,6400,490,6240,490C6080,490,5920,490,5760,490C5600,490,5440,490,5280,490C5120,490,4960,490,4800,490C4640,490,4480,490,4320,490C4160,490,4000,490,3840,490C3680,490,3520,490,3360,490C3200,490,3040,490,2880,490C2720,490,2560,490,2400,490C2240,490,2080,490,1920,490C1760,490,1600,490,1440,490C1280,490,1120,490,960,490C800,490,640,490,480,490C320,490,160,490,80,490L0,490Z"/><defs><linearGradient id="sw-gradient-1" x1="0" x2="0" y1="1" y2="0"><stop stop-color="rgba(255, 199.213, 0, 1)" offset="0%"/><stop stop-color="rgba(255, 11, 11, 1)" offset="100%"/></linearGradient></defs><path style="transform:translate(0, 50px); opacity:0.9" fill="url(#sw-gradient-1)" d="M0,196L80,187.8C160,180,320,163,480,204.2C640,245,800,343,960,351.2C1120,359,1280,278,1440,261.3C1600,245,1760,294,1920,294C2080,294,2240,245,2400,228.7C2560,212,2720,229,2880,269.5C3040,310,3200,376,3360,359.3C3520,343,3680,245,3840,220.5C4000,196,4160,245,4320,294C4480,343,4640,392,4800,343C4960,294,5120,147,5280,114.3C5440,82,5600,163,5760,163.3C5920,163,6080,82,6240,73.5C6400,65,6560,131,6720,155.2C6880,180,7040,163,7200,171.5C7360,180,7520,212,7680,236.8C7840,261,8000,278,8160,310.3C8320,343,8480,392,8640,343C8800,294,8960,147,9120,122.5C9280,98,9440,196,9600,212.3C9760,229,9920,163,10080,130.7C10240,98,10400,98,10560,147C10720,196,10880,294,11040,334.8C11200,376,11360,359,11440,351.2L11520,343L11520,490L11440,490C11360,490,11200,490,11040,490C10880,490,10720,490,10560,490C10400,490,10240,490,10080,490C9920,490,9760,490,9600,490C9440,490,9280,490,9120,490C8960,490,8800,490,8640,490C8480,490,8320,490,8160,490C8000,490,7840,490,7680,490C7520,490,7360,490,7200,490C7040,490,6880,490,6720,490C6560,490,6400,490,6240,490C6080,490,5920,490,5760,490C5600,490,5440,490,5280,490C5120,490,4960,490,4800,490C4640,490,4480,490,4320,490C4160,490,4000,490,3840,490C3680,490,3520,490,3360,490C3200,490,3040,490,2880,490C2720,490,2560,490,2400,490C2240,490,2080,490,1920,490C1760,490,1600,490,1440,490C1280,490,1120,490,960,490C800,490,640,490,480,490C320,490,160,490,80,490L0,490Z"/></svg>