<?xml version="1.0" standalone="no"?>
<svg xmlns:xlink="http://www.w3.org/1999/xlink" id="wave" style="transform:rotate(0deg); transition: 0.3s" viewBox="0 0 1440 490" version="1.1" xmlns="http://www.w3.org/2000/svg"><defs><linearGradient id="sw-gradient-0" x1="0" x2="0" y1="1" y2="0"><stop stop-color="rgba(255, 61.989, 0, 1)" offset="0%"/><stop stop-color="rgba(129.39, 0, 255, 1)" offset="100%"/></linearGradient></defs><path style="transform:translate(0, 0px); opacity:1" fill="url(#sw-gradient-0)" d="M0,98L16,114.3C32,131,64,163,96,155.2C128,147,160,98,192,65.3C224,33,256,16,288,40.8C320,65,352,131,384,187.8C416,245,448,294,480,277.7C512,261,544,180,576,163.3C608,147,640,196,672,187.8C704,180,736,114,768,122.5C800,131,832,212,864,277.7C896,343,928,392,960,343C992,294,1024,147,1056,147C1088,147,1120,294,1152,326.7C1184,359,1216,278,1248,204.2C1280,131,1312,65,1344,49C1376,33,1408,65,1440,130.7C1472,196,1504,294,1536,334.8C1568,376,1600,359,1632,318.5C1664,278,1696,212,1728,155.2C1760,98,1792,49,1824,73.5C1856,98,1888,196,1920,204.2C1952,212,1984,131,2016,81.7C2048,33,2080,16,2112,24.5C2144,33,2176,65,2208,122.5C2240,180,2272,261,2288,302.2L2304,343L2304,490L2288,490C2272,490,2240,490,2208,490C2176,490,2144,490,2112,490C2080,490,2048,490,2016,490C1984,490,1952,490,1920,490C1888,490,1856,490,1824,490C1792,490,1760,490,1728,490C1696,490,1664,490,1632,490C1600,490,1568,490,1536,490C1504,490,1472,490,1440,490C1408,490,1376,490,1344,490C1312,490,1280,490,1248,490C1216,490,1184,490,1152,490C1120,490,1088,490,1056,490C1024,490,992,490,960,490C928,490,896,490,864,490C832,490,800,490,768,490C736,490,704,490,672,490C640,490,608,490,576,490C544,490,512,490,480,490C448,490,416,490,384,490C352,490,320,490,288,490C256,490,224,490,192,490C160,490,128,490,96,490C64,490,32,490,16,490L0,490Z"/></svg>