<?xml version="1.0" standalone="no"?>
<svg xmlns:xlink="http://www.w3.org/1999/xlink" id="wave" style="transform:rotate(0deg); transition: 0.3s" viewBox="0 0 1440 490" version="1.1" xmlns="http://www.w3.org/2000/svg"><defs><linearGradient id="sw-gradient-0" x1="0" x2="0" y1="1" y2="0"><stop stop-color="rgba(243, 106, 62, 1)" offset="0%"/><stop stop-color="rgba(255, 179, 11, 1)" offset="100%"/></linearGradient></defs><path style="transform:translate(0, 0px); opacity:1" fill="url(#sw-gradient-0)" d="M0,98L48,114.3C96,131,192,163,288,155.2C384,147,480,98,576,65.3C672,33,768,16,864,40.8C960,65,1056,131,1152,187.8C1248,245,1344,294,1440,277.7C1536,261,1632,180,1728,163.3C1824,147,1920,196,2016,187.8C2112,180,2208,114,2304,122.5C2400,131,2496,212,2592,277.7C2688,343,2784,392,2880,343C2976,294,3072,147,3168,147C3264,147,3360,294,3456,326.7C3552,359,3648,278,3744,204.2C3840,131,3936,65,4032,49C4128,33,4224,65,4320,130.7C4416,196,4512,294,4608,334.8C4704,376,4800,359,4896,318.5C4992,278,5088,212,5184,155.2C5280,98,5376,49,5472,73.5C5568,98,5664,196,5760,204.2C5856,212,5952,131,6048,81.7C6144,33,6240,16,6336,24.5C6432,33,6528,65,6624,122.5C6720,180,6816,261,6864,302.2L6912,343L6912,490L6864,490C6816,490,6720,490,6624,490C6528,490,6432,490,6336,490C6240,490,6144,490,6048,490C5952,490,5856,490,5760,490C5664,490,5568,490,5472,490C5376,490,5280,490,5184,490C5088,490,4992,490,4896,490C4800,490,4704,490,4608,490C4512,490,4416,490,4320,490C4224,490,4128,490,4032,490C3936,490,3840,490,3744,490C3648,490,3552,490,3456,490C3360,490,3264,490,3168,490C3072,490,2976,490,2880,490C2784,490,2688,490,2592,490C2496,490,2400,490,2304,490C2208,490,2112,490,2016,490C1920,490,1824,490,1728,490C1632,490,1536,490,1440,490C1344,490,1248,490,1152,490C1056,490,960,490,864,490C768,490,672,490,576,490C480,490,384,490,288,490C192,490,96,490,48,490L0,490Z"/></svg>