<?xml version="1.0" standalone="no"?>
<svg xmlns:xlink="http://www.w3.org/1999/xlink" id="wave" style="transform:rotate(0deg); transition: 0.3s" viewBox="0 0 1440 490" version="1.1" xmlns="http://www.w3.org/2000/svg"><defs><linearGradient id="sw-gradient-0" x1="0" x2="0" y1="1" y2="0"><stop stop-color="rgba(243, 106, 62, 1)" offset="0%"/><stop stop-color="rgba(255, 221.341, 146.935, 1)" offset="100%"/></linearGradient></defs><path style="transform:translate(0, 0px); opacity:1" fill="url(#sw-gradient-0)" d="M0,343L10,351.2C20,359,40,376,60,351.2C80,327,100,261,120,204.2C140,147,160,98,180,106.2C200,114,220,180,240,228.7C260,278,280,310,300,294C320,278,340,212,360,204.2C380,196,400,245,420,245C440,245,460,196,480,163.3C500,131,520,114,540,106.2C560,98,580,98,600,89.8C620,82,640,65,660,122.5C680,180,700,310,720,302.2C740,294,760,147,780,122.5C800,98,820,196,840,245C860,294,880,294,900,310.3C920,327,940,359,960,359.3C980,359,1000,327,1020,302.2C1040,278,1060,261,1080,212.3C1100,163,1120,82,1140,106.2C1160,131,1180,261,1200,302.2C1220,343,1240,294,1260,269.5C1280,245,1300,245,1320,261.3C1340,278,1360,310,1380,343C1400,376,1420,408,1430,424.7L1440,441L1440,490L1430,490C1420,490,1400,490,1380,490C1360,490,1340,490,1320,490C1300,490,1280,490,1260,490C1240,490,1220,490,1200,490C1180,490,1160,490,1140,490C1120,490,1100,490,1080,490C1060,490,1040,490,1020,490C1000,490,980,490,960,490C940,490,920,490,900,490C880,490,860,490,840,490C820,490,800,490,780,490C760,490,740,490,720,490C700,490,680,490,660,490C640,490,620,490,600,490C580,490,560,490,540,490C520,490,500,490,480,490C460,490,440,490,420,490C400,490,380,490,360,490C340,490,320,490,300,490C280,490,260,490,240,490C220,490,200,490,180,490C160,490,140,490,120,490C100,490,80,490,60,490C40,490,20,490,10,490L0,490Z"/><defs><linearGradient id="sw-gradient-1" x1="0" x2="0" y1="1" y2="0"><stop stop-color="rgba(243, 106, 62, 1)" offset="0%"/><stop stop-color="rgba(255, 255, 255, 1)" offset="100%"/></linearGradient></defs><path style="transform:translate(0, 50px); opacity:0.9" fill="url(#sw-gradient-1)" d="M0,196L10,171.5C20,147,40,98,60,130.7C80,163,100,278,120,318.5C140,359,160,327,180,302.2C200,278,220,261,240,228.7C260,196,280,147,300,163.3C320,180,340,261,360,277.7C380,294,400,245,420,187.8C440,131,460,65,480,49C500,33,520,65,540,122.5C560,180,580,261,600,302.2C620,343,640,343,660,285.8C680,229,700,114,720,98C740,82,760,163,780,196C800,229,820,212,840,196C860,180,880,163,900,147C920,131,940,114,960,114.3C980,114,1000,131,1020,163.3C1040,196,1060,245,1080,269.5C1100,294,1120,294,1140,261.3C1160,229,1180,163,1200,114.3C1220,65,1240,33,1260,32.7C1280,33,1300,65,1320,81.7C1340,98,1360,98,1380,114.3C1400,131,1420,163,1430,179.7L1440,196L1440,490L1430,490C1420,490,1400,490,1380,490C1360,490,1340,490,1320,490C1300,490,1280,490,1260,490C1240,490,1220,490,1200,490C1180,490,1160,490,1140,490C1120,490,1100,490,1080,490C1060,490,1040,490,1020,490C1000,490,980,490,960,490C940,490,920,490,900,490C880,490,860,490,840,490C820,490,800,490,780,490C760,490,740,490,720,490C700,490,680,490,660,490C640,490,620,490,600,490C580,490,560,490,540,490C520,490,500,490,480,490C460,490,440,490,420,490C400,490,380,490,360,490C340,490,320,490,300,490C280,490,260,490,240,490C220,490,200,490,180,490C160,490,140,490,120,490C100,490,80,490,60,490C40,490,20,490,10,490L0,490Z"/><defs><linearGradient id="sw-gradient-2" x1="0" x2="0" y1="1" y2="0"><stop stop-color="rgba(243, 106, 62, 1)" offset="0%"/><stop stop-color="rgba(255, 151.254, 151.254, 1)" offset="100%"/></linearGradient></defs><path style="transform:translate(0, 100px); opacity:0.8" fill="url(#sw-gradient-2)" d="M0,196L10,212.3C20,229,40,261,60,253.2C80,245,100,196,120,220.5C140,245,160,343,180,351.2C200,359,220,278,240,245C260,212,280,229,300,245C320,261,340,278,360,302.2C380,327,400,359,420,359.3C440,359,460,327,480,310.3C500,294,520,294,540,261.3C560,229,580,163,600,179.7C620,196,640,294,660,326.7C680,359,700,327,720,302.2C740,278,760,261,780,253.2C800,245,820,245,840,261.3C860,278,880,310,900,269.5C920,229,940,114,960,122.5C980,131,1000,261,1020,261.3C1040,261,1060,131,1080,98C1100,65,1120,131,1140,147C1160,163,1180,131,1200,155.2C1220,180,1240,261,1260,269.5C1280,278,1300,212,1320,163.3C1340,114,1360,82,1380,73.5C1400,65,1420,82,1430,89.8L1440,98L1440,490L1430,490C1420,490,1400,490,1380,490C1360,490,1340,490,1320,490C1300,490,1280,490,1260,490C1240,490,1220,490,1200,490C1180,490,1160,490,1140,490C1120,490,1100,490,1080,490C1060,490,1040,490,1020,490C1000,490,980,490,960,490C940,490,920,490,900,490C880,490,860,490,840,490C820,490,800,490,780,490C760,490,740,490,720,490C700,490,680,490,660,490C640,490,620,490,600,490C580,490,560,490,540,490C520,490,500,490,480,490C460,490,440,490,420,490C400,490,380,490,360,490C340,490,320,490,300,490C280,490,260,490,240,490C220,490,200,490,180,490C160,490,140,490,120,490C100,490,80,490,60,490C40,490,20,490,10,490L0,490Z"/></svg>