<?xml version="1.0" standalone="no"?>
<svg xmlns:xlink="http://www.w3.org/1999/xlink" id="wave" style="transform:rotate(180deg); transition: 0.3s" viewBox="0 0 1440 260" version="1.1" xmlns="http://www.w3.org/2000/svg"><defs><linearGradient id="sw-gradient-0" x1="0" x2="0" y1="1" y2="0"><stop stop-color="rgba(243, 106, 62, 1)" offset="0%"/><stop stop-color="rgba(255, 221.341, 146.935, 1)" offset="100%"/></linearGradient></defs><path style="transform:translate(0, 0px); opacity:1" fill="url(#sw-gradient-0)" d="M0,182L21.8,186.3C43.6,191,87,199,131,186.3C174.5,173,218,139,262,108.3C305.5,78,349,52,393,56.3C436.4,61,480,95,524,121.3C567.3,147,611,165,655,156C698.2,147,742,113,785,108.3C829.1,104,873,130,916,130C960,130,1004,104,1047,86.7C1090.9,69,1135,61,1178,56.3C1221.8,52,1265,52,1309,47.7C1352.7,43,1396,35,1440,65C1483.6,95,1527,165,1571,160.3C1614.5,156,1658,78,1702,65C1745.5,52,1789,104,1833,130C1876.4,156,1920,156,1964,164.7C2007.3,173,2051,191,2095,190.7C2138.2,191,2182,173,2225,160.3C2269.1,147,2313,139,2356,112.7C2400,87,2444,43,2487,56.3C2530.9,69,2575,139,2618,160.3C2661.8,182,2705,156,2749,143C2792.7,130,2836,130,2880,138.7C2923.6,147,2967,165,3011,182C3054.5,199,3098,217,3120,225.3L3141.8,234L3141.8,260L3120,260C3098.2,260,3055,260,3011,260C2967.3,260,2924,260,2880,260C2836.4,260,2793,260,2749,260C2705.5,260,2662,260,2618,260C2574.5,260,2531,260,2487,260C2443.6,260,2400,260,2356,260C2312.7,260,2269,260,2225,260C2181.8,260,2138,260,2095,260C2050.9,260,2007,260,1964,260C1920,260,1876,260,1833,260C1789.1,260,1745,260,1702,260C1658.2,260,1615,260,1571,260C1527.3,260,1484,260,1440,260C1396.4,260,1353,260,1309,260C1265.5,260,1222,260,1178,260C1134.5,260,1091,260,1047,260C1003.6,260,960,260,916,260C872.7,260,829,260,785,260C741.8,260,698,260,655,260C610.9,260,567,260,524,260C480,260,436,260,393,260C349.1,260,305,260,262,260C218.2,260,175,260,131,260C87.3,260,44,260,22,260L0,260Z"/><defs><linearGradient id="sw-gradient-1" x1="0" x2="0" y1="1" y2="0"><stop stop-color="rgba(243, 106, 62, 1)" offset="0%"/><stop stop-color="rgba(255, 255, 255, 1)" offset="100%"/></linearGradient></defs><path style="transform:translate(0, 50px); opacity:0.9" fill="url(#sw-gradient-1)" d="M0,104L21.8,91C43.6,78,87,52,131,69.3C174.5,87,218,147,262,169C305.5,191,349,173,393,160.3C436.4,147,480,139,524,121.3C567.3,104,611,78,655,86.7C698.2,95,742,139,785,147.3C829.1,156,873,130,916,99.7C960,69,1004,35,1047,26C1090.9,17,1135,35,1178,65C1221.8,95,1265,139,1309,160.3C1352.7,182,1396,182,1440,151.7C1483.6,121,1527,61,1571,52C1614.5,43,1658,87,1702,104C1745.5,121,1789,113,1833,104C1876.4,95,1920,87,1964,78C2007.3,69,2051,61,2095,60.7C2138.2,61,2182,69,2225,86.7C2269.1,104,2313,130,2356,143C2400,156,2444,156,2487,138.7C2530.9,121,2575,87,2618,60.7C2661.8,35,2705,17,2749,17.3C2792.7,17,2836,35,2880,43.3C2923.6,52,2967,52,3011,60.7C3054.5,69,3098,87,3120,95.3L3141.8,104L3141.8,260L3120,260C3098.2,260,3055,260,3011,260C2967.3,260,2924,260,2880,260C2836.4,260,2793,260,2749,260C2705.5,260,2662,260,2618,260C2574.5,260,2531,260,2487,260C2443.6,260,2400,260,2356,260C2312.7,260,2269,260,2225,260C2181.8,260,2138,260,2095,260C2050.9,260,2007,260,1964,260C1920,260,1876,260,1833,260C1789.1,260,1745,260,1702,260C1658.2,260,1615,260,1571,260C1527.3,260,1484,260,1440,260C1396.4,260,1353,260,1309,260C1265.5,260,1222,260,1178,260C1134.5,260,1091,260,1047,260C1003.6,260,960,260,916,260C872.7,260,829,260,785,260C741.8,260,698,260,655,260C610.9,260,567,260,524,260C480,260,436,260,393,260C349.1,260,305,260,262,260C218.2,260,175,260,131,260C87.3,260,44,260,22,260L0,260Z"/><defs><linearGradient id="sw-gradient-2" x1="0" x2="0" y1="1" y2="0"><stop stop-color="rgba(243, 106, 62, 1)" offset="0%"/><stop stop-color="rgba(255, 151.254, 151.254, 1)" offset="100%"/></linearGradient></defs><path style="transform:translate(0, 100px); opacity:0.8" fill="url(#sw-gradient-2)" d="M0,104L21.8,112.7C43.6,121,87,139,131,134.3C174.5,130,218,104,262,117C305.5,130,349,182,393,186.3C436.4,191,480,147,524,130C567.3,113,611,121,655,130C698.2,139,742,147,785,160.3C829.1,173,873,191,916,190.7C960,191,1004,173,1047,164.7C1090.9,156,1135,156,1178,138.7C1221.8,121,1265,87,1309,95.3C1352.7,104,1396,156,1440,173.3C1483.6,191,1527,173,1571,160.3C1614.5,147,1658,139,1702,134.3C1745.5,130,1789,130,1833,138.7C1876.4,147,1920,165,1964,143C2007.3,121,2051,61,2095,65C2138.2,69,2182,139,2225,138.7C2269.1,139,2313,69,2356,52C2400,35,2444,69,2487,78C2530.9,87,2575,69,2618,82.3C2661.8,95,2705,139,2749,143C2792.7,147,2836,113,2880,86.7C2923.6,61,2967,43,3011,39C3054.5,35,3098,43,3120,47.7L3141.8,52L3141.8,260L3120,260C3098.2,260,3055,260,3011,260C2967.3,260,2924,260,2880,260C2836.4,260,2793,260,2749,260C2705.5,260,2662,260,2618,260C2574.5,260,2531,260,2487,260C2443.6,260,2400,260,2356,260C2312.7,260,2269,260,2225,260C2181.8,260,2138,260,2095,260C2050.9,260,2007,260,1964,260C1920,260,1876,260,1833,260C1789.1,260,1745,260,1702,260C1658.2,260,1615,260,1571,260C1527.3,260,1484,260,1440,260C1396.4,260,1353,260,1309,260C1265.5,260,1222,260,1178,260C1134.5,260,1091,260,1047,260C1003.6,260,960,260,916,260C872.7,260,829,260,785,260C741.8,260,698,260,655,260C610.9,260,567,260,524,260C480,260,436,260,393,260C349.1,260,305,260,262,260C218.2,260,175,260,131,260C87.3,260,44,260,22,260L0,260Z"/></svg>