<?xml version="1.0" standalone="no"?>
<svg xmlns:xlink="http://www.w3.org/1999/xlink" id="wave" style="transform:rotate(0deg); transition: 0.3s" viewBox="0 0 1440 490" version="1.1" xmlns="http://www.w3.org/2000/svg"><defs><linearGradient id="sw-gradient-0" x1="0" x2="0" y1="1" y2="0"><stop stop-color="rgba(171.079, 171.079, 171.079, 1)" offset="0%"/><stop stop-color="rgba(255, 255, 255, 1)" offset="100%"/></linearGradient></defs><path style="transform:translate(0, 0px); opacity:1" fill="url(#sw-gradient-0)" d="M0,343L80,351.2C160,359,320,376,480,351.2C640,327,800,261,960,204.2C1120,147,1280,98,1440,106.2C1600,114,1760,180,1920,228.7C2080,278,2240,310,2400,294C2560,278,2720,212,2880,204.2C3040,196,3200,245,3360,245C3520,245,3680,196,3840,163.3C4000,131,4160,114,4320,106.2C4480,98,4640,98,4800,89.8C4960,82,5120,65,5280,122.5C5440,180,5600,310,5760,302.2C5920,294,6080,147,6240,122.5C6400,98,6560,196,6720,245C6880,294,7040,294,7200,310.3C7360,327,7520,359,7680,359.3C7840,359,8000,327,8160,302.2C8320,278,8480,261,8640,212.3C8800,163,8960,82,9120,106.2C9280,131,9440,261,9600,302.2C9760,343,9920,294,10080,269.5C10240,245,10400,245,10560,261.3C10720,278,10880,310,11040,343C11200,376,11360,408,11440,424.7L11520,441L11520,490L11440,490C11360,490,11200,490,11040,490C10880,490,10720,490,10560,490C10400,490,10240,490,10080,490C9920,490,9760,490,9600,490C9440,490,9280,490,9120,490C8960,490,8800,490,8640,490C8480,490,8320,490,8160,490C8000,490,7840,490,7680,490C7520,490,7360,490,7200,490C7040,490,6880,490,6720,490C6560,490,6400,490,6240,490C6080,490,5920,490,5760,490C5600,490,5440,490,5280,490C5120,490,4960,490,4800,490C4640,490,4480,490,4320,490C4160,490,4000,490,3840,490C3680,490,3520,490,3360,490C3200,490,3040,490,2880,490C2720,490,2560,490,2400,490C2240,490,2080,490,1920,490C1760,490,1600,490,1440,490C1280,490,1120,490,960,490C800,490,640,490,480,490C320,490,160,490,80,490L0,490Z"/><defs><linearGradient id="sw-gradient-1" x1="0" x2="0" y1="1" y2="0"><stop stop-color="rgba(223.445, 223.445, 223.445, 1)" offset="0%"/><stop stop-color="rgba(255, 255, 255, 1)" offset="100%"/></linearGradient></defs><path style="transform:translate(0, 50px); opacity:0.9" fill="url(#sw-gradient-1)" d="M0,196L80,171.5C160,147,320,98,480,130.7C640,163,800,278,960,318.5C1120,359,1280,327,1440,302.2C1600,278,1760,261,1920,228.7C2080,196,2240,147,2400,163.3C2560,180,2720,261,2880,277.7C3040,294,3200,245,3360,187.8C3520,131,3680,65,3840,49C4000,33,4160,65,4320,122.5C4480,180,4640,261,4800,302.2C4960,343,5120,343,5280,285.8C5440,229,5600,114,5760,98C5920,82,6080,163,6240,196C6400,229,6560,212,6720,196C6880,180,7040,163,7200,147C7360,131,7520,114,7680,114.3C7840,114,8000,131,8160,163.3C8320,196,8480,245,8640,269.5C8800,294,8960,294,9120,261.3C9280,229,9440,163,9600,114.3C9760,65,9920,33,10080,32.7C10240,33,10400,65,10560,81.7C10720,98,10880,98,11040,114.3C11200,131,11360,163,11440,179.7L11520,196L11520,490L11440,490C11360,490,11200,490,11040,490C10880,490,10720,490,10560,490C10400,490,10240,490,10080,490C9920,490,9760,490,9600,490C9440,490,9280,490,9120,490C8960,490,8800,490,8640,490C8480,490,8320,490,8160,490C8000,490,7840,490,7680,490C7520,490,7360,490,7200,490C7040,490,6880,490,6720,490C6560,490,6400,490,6240,490C6080,490,5920,490,5760,490C5600,490,5440,490,5280,490C5120,490,4960,490,4800,490C4640,490,4480,490,4320,490C4160,490,4000,490,3840,490C3680,490,3520,490,3360,490C3200,490,3040,490,2880,490C2720,490,2560,490,2400,490C2240,490,2080,490,1920,490C1760,490,1600,490,1440,490C1280,490,1120,490,960,490C800,490,640,490,480,490C320,490,160,490,80,490L0,490Z"/><defs><linearGradient id="sw-gradient-2" x1="0" x2="0" y1="1" y2="0"><stop stop-color="rgba(250.767, 250.767, 250.767, 1)" offset="0%"/><stop stop-color="rgba(193.847, 193.847, 193.847, 1)" offset="100%"/></linearGradient></defs><path style="transform:translate(0, 100px); opacity:0.8" fill="url(#sw-gradient-2)" d="M0,196L80,212.3C160,229,320,261,480,253.2C640,245,800,196,960,220.5C1120,245,1280,343,1440,351.2C1600,359,1760,278,1920,245C2080,212,2240,229,2400,245C2560,261,2720,278,2880,302.2C3040,327,3200,359,3360,359.3C3520,359,3680,327,3840,310.3C4000,294,4160,294,4320,261.3C4480,229,4640,163,4800,179.7C4960,196,5120,294,5280,326.7C5440,359,5600,327,5760,302.2C5920,278,6080,261,6240,253.2C6400,245,6560,245,6720,261.3C6880,278,7040,310,7200,269.5C7360,229,7520,114,7680,122.5C7840,131,8000,261,8160,261.3C8320,261,8480,131,8640,98C8800,65,8960,131,9120,147C9280,163,9440,131,9600,155.2C9760,180,9920,261,10080,269.5C10240,278,10400,212,10560,163.3C10720,114,10880,82,11040,73.5C11200,65,11360,82,11440,89.8L11520,98L11520,490L11440,490C11360,490,11200,490,11040,490C10880,490,10720,490,10560,490C10400,490,10240,490,10080,490C9920,490,9760,490,9600,490C9440,490,9280,490,9120,490C8960,490,8800,490,8640,490C8480,490,8320,490,8160,490C8000,490,7840,490,7680,490C7520,490,7360,490,7200,490C7040,490,6880,490,6720,490C6560,490,6400,490,6240,490C6080,490,5920,490,5760,490C5600,490,5440,490,5280,490C5120,490,4960,490,4800,490C4640,490,4480,490,4320,490C4160,490,4000,490,3840,490C3680,490,3520,490,3360,490C3200,490,3040,490,2880,490C2720,490,2560,490,2400,490C2240,490,2080,490,1920,490C1760,490,1600,490,1440,490C1280,490,1120,490,960,490C800,490,640,490,480,490C320,490,160,490,80,490L0,490Z"/></svg>