<?xml version="1.0" standalone="no"?>
<svg xmlns:xlink="http://www.w3.org/1999/xlink" id="wave" style="transform:rotate(0deg); transition: 0.3s" viewBox="0 0 1440 490" version="1.1" xmlns="http://www.w3.org/2000/svg"><defs><linearGradient id="sw-gradient-0" x1="0" x2="0" y1="1" y2="0"><stop stop-color="rgba(255, 255, 255, 0.31)" offset="0%"/><stop stop-color="rgba(255, 255, 255, 0.34)" offset="100%"/></linearGradient></defs><path style="transform:translate(0, 0px); opacity:1" fill="url(#sw-gradient-0)" d="M0,147L26.7,196C53.3,245,107,343,160,343C213.3,343,267,245,320,212.3C373.3,180,427,212,480,253.2C533.3,294,587,343,640,359.3C693.3,376,747,359,800,334.8C853.3,310,907,278,960,253.2C1013.3,229,1067,212,1120,204.2C1173.3,196,1227,196,1280,187.8C1333.3,180,1387,163,1440,163.3C1493.3,163,1547,180,1600,228.7C1653.3,278,1707,359,1760,400.2C1813.3,441,1867,441,1920,432.8C1973.3,425,2027,408,2080,375.7C2133.3,343,2187,294,2240,261.3C2293.3,229,2347,212,2400,236.8C2453.3,261,2507,327,2560,310.3C2613.3,294,2667,196,2720,130.7C2773.3,65,2827,33,2880,65.3C2933.3,98,2987,196,3040,236.8C3093.3,278,3147,261,3200,228.7C3253.3,196,3307,147,3360,171.5C3413.3,196,3467,294,3520,285.8C3573.3,278,3627,163,3680,163.3C3733.3,163,3787,278,3813,334.8L3840,392L3840,490L3813.3,490C3786.7,490,3733,490,3680,490C3626.7,490,3573,490,3520,490C3466.7,490,3413,490,3360,490C3306.7,490,3253,490,3200,490C3146.7,490,3093,490,3040,490C2986.7,490,2933,490,2880,490C2826.7,490,2773,490,2720,490C2666.7,490,2613,490,2560,490C2506.7,490,2453,490,2400,490C2346.7,490,2293,490,2240,490C2186.7,490,2133,490,2080,490C2026.7,490,1973,490,1920,490C1866.7,490,1813,490,1760,490C1706.7,490,1653,490,1600,490C1546.7,490,1493,490,1440,490C1386.7,490,1333,490,1280,490C1226.7,490,1173,490,1120,490C1066.7,490,1013,490,960,490C906.7,490,853,490,800,490C746.7,490,693,490,640,490C586.7,490,533,490,480,490C426.7,490,373,490,320,490C266.7,490,213,490,160,490C106.7,490,53,490,27,490L0,490Z"/><defs><linearGradient id="sw-gradient-1" x1="0" x2="0" y1="1" y2="0"><stop stop-color="rgba(255, 255, 255, 0.6)" offset="0%"/><stop stop-color="rgba(255, 255, 255, 0.56)" offset="100%"/></linearGradient></defs><path style="transform:translate(0, 50px); opacity:0.9" fill="url(#sw-gradient-1)" d="M0,294L26.7,245C53.3,196,107,98,160,65.3C213.3,33,267,65,320,89.8C373.3,114,427,131,480,114.3C533.3,98,587,49,640,65.3C693.3,82,747,163,800,228.7C853.3,294,907,343,960,343C1013.3,343,1067,294,1120,261.3C1173.3,229,1227,212,1280,212.3C1333.3,212,1387,229,1440,269.5C1493.3,310,1547,376,1600,359.3C1653.3,343,1707,245,1760,236.8C1813.3,229,1867,310,1920,310.3C1973.3,310,2027,229,2080,196C2133.3,163,2187,180,2240,228.7C2293.3,278,2347,359,2400,400.2C2453.3,441,2507,441,2560,392C2613.3,343,2667,245,2720,187.8C2773.3,131,2827,114,2880,89.8C2933.3,65,2987,33,3040,65.3C3093.3,98,3147,196,3200,204.2C3253.3,212,3307,131,3360,89.8C3413.3,49,3467,49,3520,40.8C3573.3,33,3627,16,3680,73.5C3733.3,131,3787,261,3813,326.7L3840,392L3840,490L3813.3,490C3786.7,490,3733,490,3680,490C3626.7,490,3573,490,3520,490C3466.7,490,3413,490,3360,490C3306.7,490,3253,490,3200,490C3146.7,490,3093,490,3040,490C2986.7,490,2933,490,2880,490C2826.7,490,2773,490,2720,490C2666.7,490,2613,490,2560,490C2506.7,490,2453,490,2400,490C2346.7,490,2293,490,2240,490C2186.7,490,2133,490,2080,490C2026.7,490,1973,490,1920,490C1866.7,490,1813,490,1760,490C1706.7,490,1653,490,1600,490C1546.7,490,1493,490,1440,490C1386.7,490,1333,490,1280,490C1226.7,490,1173,490,1120,490C1066.7,490,1013,490,960,490C906.7,490,853,490,800,490C746.7,490,693,490,640,490C586.7,490,533,490,480,490C426.7,490,373,490,320,490C266.7,490,213,490,160,490C106.7,490,53,490,27,490L0,490Z"/><defs><linearGradient id="sw-gradient-2" x1="0" x2="0" y1="1" y2="0"><stop stop-color="rgba(255, 255, 255, 0.52)" offset="0%"/><stop stop-color="rgba(255, 255, 255, 0.49)" offset="100%"/></linearGradient></defs><path style="transform:translate(0, 100px); opacity:0.8" fill="url(#sw-gradient-2)" d="M0,0L26.7,49C53.3,98,107,196,160,220.5C213.3,245,267,196,320,196C373.3,196,427,245,480,228.7C533.3,212,587,131,640,98C693.3,65,747,82,800,147C853.3,212,907,327,960,318.5C1013.3,310,1067,180,1120,171.5C1173.3,163,1227,278,1280,318.5C1333.3,359,1387,327,1440,318.5C1493.3,310,1547,327,1600,302.2C1653.3,278,1707,212,1760,171.5C1813.3,131,1867,114,1920,130.7C1973.3,147,2027,196,2080,204.2C2133.3,212,2187,180,2240,147C2293.3,114,2347,82,2400,106.2C2453.3,131,2507,212,2560,245C2613.3,278,2667,261,2720,261.3C2773.3,261,2827,278,2880,294C2933.3,310,2987,327,3040,334.8C3093.3,343,3147,343,3200,359.3C3253.3,376,3307,408,3360,408.3C3413.3,408,3467,376,3520,367.5C3573.3,359,3627,376,3680,392C3733.3,408,3787,425,3813,432.8L3840,441L3840,490L3813.3,490C3786.7,490,3733,490,3680,490C3626.7,490,3573,490,3520,490C3466.7,490,3413,490,3360,490C3306.7,490,3253,490,3200,490C3146.7,490,3093,490,3040,490C2986.7,490,2933,490,2880,490C2826.7,490,2773,490,2720,490C2666.7,490,2613,490,2560,490C2506.7,490,2453,490,2400,490C2346.7,490,2293,490,2240,490C2186.7,490,2133,490,2080,490C2026.7,490,1973,490,1920,490C1866.7,490,1813,490,1760,490C1706.7,490,1653,490,1600,490C1546.7,490,1493,490,1440,490C1386.7,490,1333,490,1280,490C1226.7,490,1173,490,1120,490C1066.7,490,1013,490,960,490C906.7,490,853,490,800,490C746.7,490,693,490,640,490C586.7,490,533,490,480,490C426.7,490,373,490,320,490C266.7,490,213,490,160,490C106.7,490,53,490,27,490L0,490Z"/></svg>